<svg width="22" height="22" viewBox="0 0 22 22" fill="none" xmlns="http://www.w3.org/2000/svg">
<path fill-rule="evenodd" clip-rule="evenodd" d="M10.9999 1.8335C5.93733 1.8335 1.83325 5.93753 1.83325 11.0001C1.83325 16.0627 5.93733 20.1668 10.9999 20.1668C16.0626 20.1668 20.1666 16.0628 20.1666 11.0001C20.1666 5.93753 16.0626 1.8335 10.9999 1.8335ZM10.9999 18.3335C6.95633 18.3335 3.6666 15.0438 3.6666 11.0001C3.6666 6.95653 6.95629 3.66684 10.9999 3.66684C15.0436 3.66684 18.3333 6.95653 18.3333 11.0001C18.3333 15.0438 15.0436 18.3335 10.9999 18.3335ZM12.1478 7.3335C12.1478 7.99814 11.6639 8.47934 11.0092 8.47934C10.3281 8.47934 9.85608 7.99809 9.85608 7.32078C9.85608 6.6698 10.3409 6.18769 11.0092 6.18769C11.6639 6.18769 12.1478 6.6698 12.1478 7.3335ZM10.0853 10.0835H11.9186V15.5835H10.0853V10.0835Z" fill="black"/>
</svg>
