<svg width="22" height="22" viewBox="0 0 22 22" fill="none" xmlns="http://www.w3.org/2000/svg">
<path d="M15.9235 17.0379L15.3231 16.4366C15.2436 16.3578 15.1498 16.3183 15.0417 16.3183C14.9329 16.3183 14.8391 16.3578 14.7602 16.4366C14.6814 16.5148 14.642 16.6074 14.642 16.7143C14.642 16.8213 14.6814 16.9142 14.7602 16.993L15.5486 17.7813C15.6622 17.8956 15.7903 17.9528 15.9327 17.9528C16.0751 17.9528 16.2031 17.8956 16.3167 17.7813L18.2399 15.8866C18.3187 15.8078 18.3612 15.717 18.3673 15.6143C18.3734 15.5111 18.331 15.4142 18.2399 15.3238C18.1611 15.2449 18.0645 15.2055 17.9502 15.2055C17.836 15.2055 17.7391 15.2452 17.6597 15.3247L15.9235 17.0379ZM6.66425 8.00234H15.3377C15.4679 8.00234 15.5767 7.95864 15.6641 7.87125C15.7515 7.78386 15.7955 7.67478 15.7961 7.544C15.7961 7.40161 15.7521 7.28978 15.6641 7.2085C15.5767 7.12662 15.4679 7.08567 15.3377 7.08567H6.66333C6.53316 7.08567 6.42408 7.12937 6.33608 7.21675C6.24808 7.30414 6.20439 7.41323 6.205 7.544C6.20561 7.67478 6.2493 7.78386 6.33608 7.87125C6.42286 7.95864 6.53286 8.00234 6.66425 8.00234ZM16.5001 20.2728C15.4789 20.2728 14.6127 19.9169 13.9013 19.2049C13.1894 18.4936 12.8334 17.6273 12.8334 16.6062C12.8334 15.585 13.1894 14.7184 13.9013 14.0065C14.6133 13.2946 15.4795 12.9389 16.5001 12.9395C17.5206 12.9401 18.3872 13.2958 19.0997 14.0065C19.8123 14.7172 20.168 15.5838 20.1667 16.6062C20.1667 17.6267 19.8111 18.493 19.0997 19.2049C18.3872 19.9169 17.5206 20.2728 16.5001 20.2728ZM3.66675 5.14784C3.66675 4.73717 3.81097 4.38762 4.09941 4.09917C4.38786 3.81073 4.73741 3.6665 5.14808 3.6665H16.853C17.2624 3.6665 17.6117 3.81073 17.9007 4.09917C18.1892 4.38762 18.3334 4.73717 18.3334 5.14784V10.0218C18.3334 10.1519 18.2897 10.261 18.2023 10.349C18.1149 10.437 18.0059 10.4807 17.8751 10.4801C17.7443 10.4795 17.6352 10.4358 17.5478 10.349C17.4604 10.2622 17.4167 10.1531 17.4167 10.0218V5.14784C17.4167 5.00667 17.3581 4.87712 17.2407 4.75917C17.1234 4.64123 16.9939 4.58256 16.8521 4.58317H5.14808C5.00691 4.58317 4.87736 4.64184 4.75941 4.75917C4.64147 4.8765 4.5828 5.00606 4.58341 5.14784V17.4623H10.3987C10.4177 17.5858 10.44 17.7092 10.4657 17.8327C10.4919 17.9561 10.5256 18.0777 10.5665 18.1975C10.6074 18.3069 10.5799 18.3964 10.484 18.4661C10.3874 18.5364 10.2958 18.5394 10.209 18.4753L9.98075 18.3194C9.91291 18.2748 9.84141 18.2525 9.76625 18.2525C9.69108 18.2525 9.61928 18.2748 9.55083 18.3194L8.74691 18.8758C8.67908 18.9211 8.60758 18.9437 8.53241 18.9437C8.45725 18.9437 8.38544 18.9211 8.317 18.8758L7.51308 18.3194C7.44464 18.2748 7.37283 18.2525 7.29766 18.2525C7.2225 18.2525 7.151 18.2748 7.08316 18.3194L6.27925 18.8758C6.21141 18.9211 6.13991 18.9437 6.06475 18.9437C5.98958 18.9437 5.91778 18.9211 5.84933 18.8758L5.04541 18.3194C4.97697 18.2748 4.90516 18.2525 4.83 18.2525C4.75483 18.2525 4.68333 18.2748 4.6155 18.3194L3.66675 19.0555V5.14784ZM6.66425 14.9131H10.2154C10.3462 14.9131 10.4553 14.8694 10.5427 14.782C10.6301 14.6946 10.6737 14.5855 10.6737 14.4548C10.6737 14.324 10.6301 14.2152 10.5427 14.1284C10.4553 14.0416 10.3462 13.9976 10.2154 13.9964H6.66425C6.53408 13.9964 6.425 14.0404 6.337 14.1284C6.249 14.2164 6.2053 14.3252 6.20591 14.4548C6.20653 14.5843 6.25022 14.6934 6.337 14.782C6.42378 14.8706 6.53286 14.9143 6.66425 14.9131ZM6.66425 11.4582H13.2679C13.3981 11.4582 13.5072 11.4145 13.5952 11.3271C13.6832 11.2397 13.7269 11.1306 13.7262 10.9998C13.7256 10.8691 13.6819 10.76 13.5952 10.6726C13.5084 10.5852 13.3993 10.5415 13.2679 10.5415H6.66333C6.53316 10.5415 6.42408 10.5852 6.33608 10.6726C6.24808 10.76 6.20469 10.8691 6.20591 10.9998C6.20714 11.1306 6.25083 11.2397 6.337 11.3271C6.42316 11.4145 6.53225 11.4582 6.66425 11.4582Z" fill="black"/>
</svg>
